<svg width="150" height="107" viewBox="0 0 150 107" fill="none" xmlns="http://www.w3.org/2000/svg">
<path fill-rule="evenodd" clip-rule="evenodd" d="M125.776 51.9687C125.787 51.4808 125.793 50.9912 125.793 50.5C125.793 22.6096 107.02 0 83.862 0C64.3749 0 47.9926 16.01 43.2887 37.7044C41.7734 37.3798 40.2135 37.2105 38.6207 37.2105C24.0238 37.2105 12.1851 51.4335 12.1381 69.0001C5.42969 69.0363 0 76.1858 0 85C0 93.8366 5.45729 101 12.1892 101H41L83.8224 101C83.8356 101 83.8488 101 83.862 101C83.8753 101 83.8885 101 83.9017 101H84.9655L123.586 101C134.86 101 144 89.9926 144 76.4144C144 63.7271 136.02 53.2844 125.776 51.9687ZM84.9783 100.982C84.9705 100.983 84.9628 100.983 84.955 100.983L84.9654 101L84.9783 100.982Z" fill="white"/>
<mask id="path-2-inside-1" fill="white">
<path fill-rule="evenodd" clip-rule="evenodd" d="M120.984 59.1052C120.995 58.7381 121 58.3696 121 58C121 37.0132 103.987 20 83 20C65.3398 20 50.4933 32.0472 46.2304 48.3717C44.8571 48.1274 43.4435 48 42 48C28.7452 48 18 58.7452 18 72C18 72.6736 18.0278 73.3407 18.0822 74.0003C18.0548 74.0001 18.0274 74 18 74C11.9249 74 7 78.9249 7 85C7 91.0751 11.9249 96 18 96H42H44H83H84H119C129.217 96 137.5 87.7173 137.5 77.5C137.5 67.9531 130.268 60.0952 120.984 59.1052ZM84.0118 95.9868L84 96L83.9905 95.9873C83.9976 95.9872 84.0047 95.987 84.0118 95.9868Z"/>
</mask>
<path fill-rule="evenodd" clip-rule="evenodd" d="M120.984 59.1052C120.995 58.7381 121 58.3696 121 58C121 37.0132 103.987 20 83 20C65.3398 20 50.4933 32.0472 46.2304 48.3717C44.8571 48.1274 43.4435 48 42 48C28.7452 48 18 58.7452 18 72C18 72.6736 18.0278 73.3407 18.0822 74.0003C18.0548 74.0001 18.0274 74 18 74C11.9249 74 7 78.9249 7 85C7 91.0751 11.9249 96 18 96H42H44H83H84H119C129.217 96 137.5 87.7173 137.5 77.5C137.5 67.9531 130.268 60.0952 120.984 59.1052ZM84.0118 95.9868L84 96L83.9905 95.9873C83.9976 95.9872 84.0047 95.987 84.0118 95.9868Z" fill="#FFD3CD"/>
<path d="M120.984 59.1052L117.985 59.0195L117.906 61.794L120.666 62.0883L120.984 59.1052ZM46.2304 48.3717L45.7052 51.3253L48.4331 51.8104L49.1331 49.1296L46.2304 48.3717ZM18.0822 74.0003L18.0604 77.0002L21.3419 77.024L21.072 73.7536L18.0822 74.0003ZM84.0118 95.9868L86.2506 97.9837L90.8666 92.8087L83.9343 92.9878L84.0118 95.9868ZM83.9905 95.9873L83.9131 92.9883L78.1044 93.1382L81.5903 97.7871L83.9905 95.9873ZM118 58C118 58.3411 117.995 58.6809 117.985 59.0195L123.983 59.1908C123.994 58.7952 124 58.3982 124 58H118ZM83 23C102.33 23 118 38.67 118 58H124C124 35.3563 105.644 17 83 17V23ZM49.1331 49.1296C53.0596 34.0931 66.7382 23 83 23V17C63.9414 17 47.927 30.0012 43.3278 47.6137L49.1331 49.1296ZM46.7557 45.418C45.2098 45.1431 43.6204 45 42 45V51C43.2666 51 44.5045 51.1118 45.7052 51.3253L46.7557 45.418ZM42 45C27.0883 45 15 57.0883 15 72H21C21 60.402 30.402 51 42 51V45ZM15 72C15 72.756 15.0311 73.5055 15.0923 74.247L21.072 73.7536C21.0244 73.176 21 72.5912 21 72H15ZM18.1039 71.0004C18.0699 71.0001 18.0352 71 18 71V77C18.0196 77 18.0398 77.0001 18.0604 77.0002L18.1039 71.0004ZM18 71C10.268 71 4 77.268 4 85H10C10 80.5817 13.5817 77 18 77V71ZM4 85C4 92.732 10.268 99 18 99V93C13.5817 93 10 89.4183 10 85H4ZM18 99H42V93H18V99ZM42 99H44V93H42V99ZM44 99H83V93H44V99ZM83 99H84V93H83V99ZM84 99H119V93H84V99ZM119 99C130.874 99 140.5 89.3741 140.5 77.5H134.5C134.5 86.0604 127.56 93 119 93V99ZM140.5 77.5C140.5 66.403 132.095 57.273 121.302 56.1221L120.666 62.0883C128.442 62.9174 134.5 69.5032 134.5 77.5H140.5ZM81.773 93.9899L81.7612 94.0031L86.2388 97.9969L86.2506 97.9837L81.773 93.9899ZM86.4002 94.2002L86.3907 94.1876L81.5903 97.7871L81.5998 97.7998L86.4002 94.2002ZM83.9343 92.9878C83.9272 92.988 83.9202 92.9882 83.9131 92.9883L84.0679 98.9863C84.075 98.9862 84.0822 98.986 84.0893 98.9858L83.9343 92.9878Z" fill="#FF5C46" mask="url(#path-2-inside-1)"/>
<path d="M108.196 45.7709C105.819 40.883 102.061 36.7903 97.4305 34C94.6616 32.3316 91.5805 31.1288 88.2954 30.5" stroke="white" stroke-width="3" stroke-linecap="round" stroke-linejoin="round"/>
<rect x="92.5" y="66.5" width="56" height="39" rx="1.5" fill="white" stroke="#FF5C46" stroke-width="3"/>
<path d="M98.0093 74.8L103.744 78.6501L98.0093 82.5" stroke="#FF5C46" stroke-width="3"/>
<line x1="106.576" y1="83.3851" x2="115.072" y2="83.3851" stroke="#FF7260" stroke-width="3"/>
</svg>
