<svg width="84" height="119" viewBox="0 0 84 119" fill="none" xmlns="http://www.w3.org/2000/svg">
<path fill-rule="evenodd" clip-rule="evenodd" d="M25 29.2994V54.5L0 76.5V97.0492L25 91.0492V95H26.5L23.5 101.5H28.0943C27.3984 104.856 30.4123 108.259 41.873 119C53.3336 108.259 56.5345 104.856 55.9301 101.5H60.5L57.5 95H59V91.1922L83.4041 97.0492V76.5L59 55.0244V29.2994C59 14.0127 51.5 4.4586 42 0C32.5 4.4586 25 14.0127 25 29.2994Z" fill="white"/>
<path d="M31 90.5V41C31 29 36.5 21.5 42 18C47.5 21.5 53 29 53 41V90.5H50.25L53 96.5H31L33.75 90.5H31Z" fill="white"/>
<path d="M31 90.5H29.5V92H31V90.5ZM53 90.5V92H54.5V90.5H53ZM42 18L42.8053 16.7345L42 16.222L41.1947 16.7345L42 18ZM31 96.5L29.6364 95.875L28.6625 98H31V96.5ZM53 96.5V98H55.3375L54.3636 95.875L53 96.5ZM32.5 90.5V41H29.5V90.5H32.5ZM51.5 41V90.5H54.5V41H51.5ZM54.5 41C54.5 28.5012 48.7497 20.5173 42.8053 16.7345L41.1947 19.2655C46.2503 22.4827 51.5 29.4988 51.5 41H54.5ZM41.1947 16.7345C35.2503 20.5173 29.5 28.5012 29.5 41H32.5C32.5 29.4988 37.7497 22.4827 42.8053 19.2655L41.1947 16.7345ZM42 89H36.5V92H42V89ZM36.5 89H33.75V92H36.5V89ZM33.75 89H31V92H33.75V89ZM47.5 89H42V92H47.5V89ZM53 89H50.25V92H53V89ZM50.25 89H47.5V92H50.25V89ZM32.3864 89.875L29.6364 95.875L32.3636 97.125L35.1136 91.125L32.3864 89.875ZM48.8864 91.125L51.6364 97.125L54.3636 95.875L51.6136 89.875L48.8864 91.125ZM53 95H31V98H53V95Z" fill="#FF5C46"/>
<path d="M51 99C53.5 103 53 104 42 114.5C31 104 30.7376 103 33.2376 99H51Z" fill="#FF5C46"/>
<path d="M47.2681 99C48.7466 101.839 48.4509 102.548 41.9456 110C35.4402 102.548 35.285 101.839 36.7635 99H47.2681Z" fill="white"/>
<path d="M45.5121 99C46.4977 101.065 46.3006 101.581 41.9637 107C37.6268 101.581 37.5234 101.065 38.509 99H45.5121Z" fill="#FF5C46"/>
<circle cx="42" cy="45" r="5.5" fill="#FFD3CD" stroke="#FF5C46" stroke-width="3"/>
<path d="M42 81V69" stroke="#FF5C46" stroke-width="3" stroke-linecap="round"/>
<path d="M5.5 80L30.5 58V83.5L5.5 89.5V80Z" fill="#FFD3CD" stroke="#FF5C46" stroke-width="3"/>
<path d="M78 80L53 58V83.5L78 89.5V80Z" fill="#FFD3CD" stroke="#FF5C46" stroke-width="3"/>
</svg>
