<svg width="104" height="59" viewBox="0 0 104 59" fill="none" xmlns="http://www.w3.org/2000/svg">
<path d="M83.9045 59H21.5238L2 25H102L83.9045 59Z" fill="white"/>
<path d="M25.6188 53C17.1761 38.1334 4 14.9318 4 14.9318L38.3653 24.0227L52 3L52.3578 37.375C52.3578 37.375 52.3578 46.8981 52.3578 53C41.9155 53 36.061 53 25.6188 53Z" fill="white"/>
<path d="M79.0234 53C87.466 38.1334 100.642 14.9318 100.642 14.9318L66.2768 24.0227L52 3L52.3578 37.375C52.3578 37.375 52.3578 46.8981 52.3578 53C62.8 53 68.5811 53 79.0234 53Z" fill="white"/>
<path d="M25.6188 53C17.1761 38.1335 4 14.9318 4 14.9318M25.6188 53C36.061 53 41.9155 53 52.3578 53M25.6188 53C36.061 46.8981 52.3578 37.375 52.3578 37.375M4 14.9318L34.6061 29.1364M4 14.9318L38.3653 24.0227M52.3578 37.375C52.3578 37.375 52.3578 46.8981 52.3578 53M52.3578 37.375L34.6061 29.1364M52.3578 37.375L52 3M52.3578 37.375L70.0359 29.1364M52.3578 37.375C52.3578 37.375 68.5811 46.8981 79.0234 53M52.3578 53C62.8 53 68.5811 53 79.0234 53M34.6061 29.1364L38.3653 24.0227M52 3L38.3653 24.0227M52 3L66.2768 24.0227M79.0234 53C87.466 38.1335 100.642 14.9318 100.642 14.9318M100.642 14.9318L70.0359 29.1364M100.642 14.9318L66.2768 24.0227M70.0359 29.1364L66.2768 24.0227" stroke="#FF5C46" stroke-width="3"/>
<mask id="mask0" mask-type="alpha" maskUnits="userSpaceOnUse" x="0" y="0" width="104" height="55">
<path d="M25.6188 53C17.1761 38.1334 4 14.9318 4 14.9318C4 14.9318 24.9448 20.4725 38.3653 24.0227C43.69 15.8128 52 3 52 3L52.3578 37.375C52.3578 37.375 52.3578 46.8981 52.3578 53C41.9155 53 36.061 53 25.6188 53Z" fill="#FFD3CD"/>
<path d="M79.0234 53C87.466 38.1334 100.642 14.9318 100.642 14.9318L66.2768 24.0227L52 3L52.3578 37.375C52.3578 37.375 52.3578 46.8981 52.3578 53C62.8 53 68.5811 53 79.0234 53Z" fill="#FFD3CD"/>
<path d="M25.6188 53C17.1761 38.1335 4 14.9318 4 14.9318M25.6188 53C36.061 53 41.9155 53 52.3578 53M25.6188 53C36.061 46.8981 52.3578 37.375 52.3578 37.375M4 14.9318L34.6061 29.1364M4 14.9318C4 14.9318 24.9448 20.4725 38.3653 24.0227M52.3578 37.375C52.3578 37.375 52.3578 46.8981 52.3578 53M52.3578 37.375L34.6061 29.1364M52.3578 37.375L52 3M52.3578 37.375L70.0359 29.1364M52.3578 37.375C52.3578 37.375 68.5811 46.8981 79.0234 53M52.3578 53C62.8 53 68.5811 53 79.0234 53M34.6061 29.1364C34.6061 29.1364 36.8973 26.0197 38.3653 24.0227M52 3C52 3 43.69 15.8128 38.3653 24.0227M52 3L66.2768 24.0227M79.0234 53C87.466 38.1335 100.642 14.9318 100.642 14.9318M100.642 14.9318L70.0359 29.1364M100.642 14.9318L66.2768 24.0227M70.0359 29.1364L66.2768 24.0227" stroke="#FF5C46" stroke-width="3"/>
</mask>
<g mask="url(#mask0)">
<path d="M34.6061 29.1363L4 14.9318L38.3653 24.0227L34.6061 29.1363Z" fill="#FFD3CD" stroke="#FF5C46" stroke-width="3"/>
<path d="M52.7388 52.625V37C52.7388 37 68.9621 46.5231 79.4044 52.625H52.7388Z" fill="#FFD3CD" stroke="#FF5C46" stroke-width="3"/>
<path d="M100.642 14.9318L79.0233 52.9999L52.2843 37.3749L70.0359 29.1363L100.642 14.9318Z" fill="#FFD3CD" stroke="#FF5C46" stroke-width="3"/>
</g>
</svg>
