<svg width="47" height="107" viewBox="0 0 47 107" fill="none" xmlns="http://www.w3.org/2000/svg">
<path d="M23.04 44.36C29.6 44.36 34.6667 46.0933 38.24 49.56C41.8133 52.9733 43.6 58.5467 43.6 66.28C43.6 74.0133 41.8133 79.5867 38.24 83C34.6667 86.4133 29.6 88.12 23.04 88.12C16.48 88.12 11.4133 86.4133 7.84 83C4.26667 79.5867 2.48 74.0133 2.48 66.28C2.48 58.5467 4.26667 52.9733 7.84 49.56C11.4133 46.0933 16.48 44.36 23.04 44.36ZM23.04 45.96C21.3333 45.96 19.9733 47.64 18.96 51C17.9467 54.36 17.44 59.4533 17.44 66.28C17.44 73.1067 17.9467 78.2 18.96 81.56C19.9733 84.8667 21.3333 86.52 23.04 86.52C24.7467 86.52 26.1067 84.8667 27.12 81.56C28.1333 78.2 28.64 73.1067 28.64 66.28C28.64 59.4533 28.1333 54.36 27.12 51C26.1067 47.64 24.7467 45.96 23.04 45.96Z" fill="#FC732C"/>
<ellipse cx="23.5" cy="66" rx="11.5" ry="21" fill="#FC732C"/>
<path d="M12 56.1762C12.4993 55.8435 15.3353 55.8435 23.5 53C31.784 55.8435 34.62 55.8435 35 56.1762V68.4249C35 72.6625 30.3294 77.6425 23.5 82C16.6705 77.6425 12 72.6625 12 68.4249V56.1762Z" fill="#2B3D87" stroke="white" stroke-width="3"/>
</svg>
