<svg width="44" height="94" viewBox="0 0 44 94" fill="none" xmlns="http://www.w3.org/2000/svg">
<path fill-rule="evenodd" clip-rule="evenodd" d="M22 75C34.1503 75 44 65.1503 44 53C44 40.8497 34.1503 31 22 31C9.84974 31 0 40.8497 0 53C0 65.1503 9.84974 75 22 75ZM12.5986 42.4573C11.9696 42.5829 11.6223 42.6523 11.4783 42.7515V54.8718C11.4783 59.0649 15.9457 63.9926 22.4783 68.3044C29.0108 63.9926 33.4783 59.0649 33.4783 54.8718V42.7515C33.3635 42.6476 33.0146 42.5765 32.3415 42.4393C30.8826 42.1419 27.9005 41.5341 22.4783 39.6087C17.0236 41.5739 14.0554 42.1665 12.5986 42.4573Z" fill="#FF5C46"/>
</svg>
